<svg width="387" height="96" viewBox="0 0 387 96" fill="none" xmlns="http://www.w3.org/2000/svg">
<g clip-path="url(#clip0_172_6350)">
<path d="M47.7077 0C38.272 0 29.0482 2.81394 21.2027 8.08597C13.3572 13.358 7.24243 20.8514 3.63155 29.6184C0.0206711 38.3855 -0.9241 48.0326 0.916711 57.3396C2.75752 66.6467 7.30124 75.1958 13.9733 81.9058C20.6453 88.6159 29.146 93.1855 38.4004 95.0368C47.6548 96.888 57.2472 95.9379 65.9646 92.3064C74.6821 88.675 82.133 82.5254 87.3752 74.6352C92.6173 66.7451 95.4154 57.4687 95.4154 47.9793C95.4138 35.2549 90.387 23.0521 81.4404 14.0546C72.4938 5.05702 60.3601 0.00156618 47.7077 0ZM47.7077 84.3286C40.5592 84.3286 33.5712 82.1967 27.6275 78.2026C21.6837 74.2085 17.0511 68.5315 14.3155 61.8896C11.5799 55.2476 10.8642 47.939 12.2588 40.8879C13.6534 33.8369 17.0957 27.3601 22.1504 22.2765C27.2052 17.193 33.6453 13.7311 40.6565 12.3285C47.6676 10.926 54.9348 11.6458 61.5392 14.397C68.1435 17.1482 73.7883 21.8072 77.7598 27.7848C81.7313 33.7624 83.8511 40.7901 83.8511 47.9793C83.8418 57.6169 80.0308 66.857 73.2546 73.6718C66.4785 80.4865 57.2907 84.3192 47.7077 84.3286Z" fill="#F0F1F2"/>
<path d="M41.9226 54.9906C43.5121 56.4248 45.5723 57.218 47.7077 57.218C49.8431 57.218 51.9033 56.4248 53.4928 54.9906V41.051C51.9051 39.6132 49.8442 38.8176 47.7077 38.8176C45.5712 38.8176 43.5103 39.6132 41.9226 41.051V54.9906ZM47.7077 23.3076C44.4826 23.3074 41.2891 23.9469 38.3101 25.1895C35.331 26.4321 32.6249 28.2534 30.3466 30.5491L38.5103 38.7711C40.9489 36.3188 44.2562 34.9411 47.7048 34.9411C51.1533 34.9411 54.4606 36.3188 56.8992 38.7711L65.0746 30.5491C62.7953 28.2515 60.0874 26.429 57.1061 25.1863C54.1249 23.9437 50.929 23.3052 47.7018 23.3076H47.7077ZM56.9109 57.2942C55.7039 58.5092 54.2706 59.473 52.6929 60.1306C51.1153 60.7882 49.4243 61.1267 47.7165 61.1267C46.0087 61.1267 44.3177 60.7882 42.7401 60.1306C41.1624 59.473 39.7291 58.5092 38.5221 57.2942L30.3584 65.4926C32.6383 67.7875 35.3456 69.608 38.3255 70.8502C41.3055 72.0923 44.4996 72.7316 47.7253 72.7316C50.951 72.7316 54.1452 72.0923 57.1251 70.8502C60.105 69.608 62.8123 67.7875 65.0922 65.4926L56.9109 57.2942ZM47.6901 96.0002C47.8952 93.2446 47.1742 90.4996 45.6427 88.2054C44.1112 85.9112 41.858 84.2007 39.2445 83.3482H39.1975C32.3165 81.633 26.088 77.9232 21.2851 72.6792C16.4822 67.4352 13.3165 60.8881 12.181 53.8506H36.1434C35.21 52.055 34.7224 50.0589 34.7224 48.0326C34.7224 46.0064 35.21 44.0103 36.1434 42.2146H12.1575C13.0905 36.3464 15.4439 30.7989 19.0103 26.0605C22.5768 21.3221 27.2469 17.5383 32.6095 15.0421C37.9721 12.546 43.8627 11.4141 49.7627 11.7461C55.6626 12.0782 61.3908 13.8639 66.4431 16.9462C68.8589 18.4043 71.7219 18.9228 74.4918 18.4038C77.2616 17.8847 79.7468 16.3641 81.4783 14.1287C75.9355 8.54298 69.1082 4.41844 61.6014 2.12058C54.0946 -0.177284 46.1402 -0.577514 38.4429 0.95535C30.7455 2.48821 23.543 5.90684 17.4734 10.9083C11.4038 15.9098 6.65465 22.3397 3.64665 29.6283C0.638645 36.9169 -0.535298 44.8392 0.228839 52.6932C0.992976 60.5471 3.6716 68.0903 8.02737 74.6543C12.3831 81.2183 18.2816 86.6004 25.2 90.3238C32.1184 94.0472 39.8433 95.9969 47.6901 96.0002Z" fill="#FFBB17"/>
<path d="M122.085 32.6517V53.3248C120.823 53.632 119.506 53.632 118.244 53.3248V32.6517H115.836C115.673 32.2531 115.595 31.8244 115.607 31.3936C115.599 30.9495 115.677 30.5082 115.836 30.0941H118.244V27.3003C118.244 23.0652 120.006 20.6435 124.705 20.6435C126.062 20.6328 127.415 20.8036 128.728 21.1515C128.846 21.5344 128.909 21.9321 128.916 22.3328C128.91 22.7336 128.846 23.1314 128.728 23.5142C127.822 23.2703 126.888 23.1453 125.95 23.142C122.943 23.142 122.062 24.4415 122.062 27.2412V30.1236H128.728C128.891 30.5368 128.971 30.9785 128.963 31.4231C128.968 31.854 128.888 32.2816 128.728 32.6812L122.085 32.6517ZM137.044 33.1242C137.044 33.1242 139.822 29.9583 145.267 29.9583C145.391 30.3981 145.453 30.8536 145.449 31.3109C145.45 31.7506 145.389 32.1882 145.267 32.6103C143.652 32.5669 142.053 32.9325 140.616 33.6736C139.179 34.4148 137.951 35.5075 137.044 36.8513V53.3307C136.419 53.4709 135.782 53.5481 135.141 53.561C134.487 53.5542 133.835 53.477 133.197 53.3307V30.3245C133.836 30.1881 134.488 30.1207 135.141 30.1236C135.782 30.1323 136.42 30.2096 137.044 30.354V33.1242ZM149.025 37.3592C149.025 32.6339 151.527 29.9583 158.329 29.9583C165.277 29.9583 167.45 32.6576 167.45 37.3592V42.6752C165.022 42.9481 162.58 43.0723 160.138 43.0473H152.878V46.3077C152.878 49.6154 154.317 51.1511 158.986 51.1511C163.843 51.1511 166.762 49.5268 166.762 49.5268C166.951 49.9333 167.046 50.3777 167.038 50.8263C167.042 51.2612 166.948 51.6914 166.762 52.0844C166.762 52.0844 164.12 53.7146 158.986 53.7146C151.715 53.7146 149.031 51.0153 149.031 46.3136L149.025 37.3592ZM163.796 40.4779V37.3592C163.796 34.0515 162.504 32.5158 158.334 32.5158C154.164 32.5158 152.872 34.0515 152.872 37.3592V40.4779H163.796ZM172.594 37.3592C172.594 32.6339 175.091 29.9583 181.898 29.9583C188.84 29.9583 191.019 32.6576 191.019 37.3592V42.6752C188.589 42.9482 186.145 43.0724 183.701 43.0473H176.436V46.3077C176.436 49.6154 177.869 51.1511 182.544 51.1511C187.407 51.1511 190.32 49.5268 190.32 49.5268C190.513 49.9319 190.61 50.3769 190.602 50.8263C190.605 51.2619 190.509 51.6924 190.32 52.0844C190.32 52.0844 187.677 53.7146 182.544 53.7146C175.278 53.7146 172.594 51.0153 172.594 46.3136V37.3592ZM187.354 40.472V37.3533C187.354 34.0456 186.062 32.5099 181.892 32.5099C177.722 32.5099 176.43 34.0456 176.43 37.3533V40.472H187.354ZM203.846 50.9976C203.972 51.3784 204.035 51.7774 204.033 52.1789C204.036 52.5592 203.972 52.937 203.846 53.2952C203.074 53.579 202.259 53.721 201.438 53.7146C197.972 53.7146 196.68 51.8068 196.68 48.4991V21.0157C197.941 20.7005 199.26 20.7005 200.521 21.0157V48.4814C200.521 50.2947 201.073 51.1393 202.694 51.1393C203.083 51.1201 203.469 51.0748 203.851 51.0035L203.846 50.9976ZM222.005 51.4701C222.005 51.4701 219.227 53.7028 214 53.7028C209.372 53.7028 207.61 51.4228 207.61 47.4182V46.7212C207.61 43 209.959 40.9918 215.95 40.3421L222.005 39.6923V37.0934C222.005 34.022 220.713 32.5335 216.778 32.5335C212.937 32.5335 211.686 33.9747 211.686 36.9989V37.5896C211.094 37.734 210.487 37.8112 209.877 37.8199C209.254 37.8132 208.633 37.736 208.027 37.5896V36.9989C208.027 32.5335 210.065 29.9701 216.778 29.9701C223.397 29.9701 225.805 32.5335 225.805 37.0934V53.3366C225.183 53.4808 224.547 53.558 223.908 53.5669C223.267 53.5628 222.629 53.4855 222.005 53.3366V51.4701ZM216.59 42.811C212.702 43.2245 211.451 44.5239 211.451 46.7212V47.4182C211.451 49.9344 212.379 51.1393 215.386 51.1393C220.155 51.1393 222.005 48.8594 222.005 48.8594V42.1495L216.59 42.811ZM235.426 32.1969C235.426 32.1969 238.157 29.9642 243.249 29.9642C248.341 29.9642 250.197 32.6517 250.197 37.3533V53.3011C249.559 53.4475 248.907 53.5247 248.252 53.5315C247.614 53.5231 246.978 53.4459 246.355 53.3011V37.3533C246.355 34.0456 245.334 32.5099 242.009 32.5099C237.24 32.5099 235.431 34.7899 235.431 34.7899V53.3189C234.806 53.4591 234.169 53.5363 233.528 53.5492C232.874 53.5424 232.222 53.4652 231.584 53.3189V30.3245C232.222 30.1781 232.874 30.1009 233.528 30.0941C234.169 30.1028 234.807 30.18 235.431 30.3245L235.426 32.1969ZM255.747 37.3592C255.747 32.6339 258.202 29.9583 264.821 29.9583C271.44 29.9583 273.572 32.6576 273.572 37.3592V37.9499C272.995 38.0966 272.404 38.1739 271.81 38.1802C271.233 38.1719 270.659 38.0945 270.101 37.9499V37.3592C270.101 34.0515 268.85 32.5158 264.815 32.5158C260.78 32.5158 259.588 34.0515 259.588 37.3592V46.3018C259.588 49.6095 260.98 51.1452 265.461 51.1452C270.101 51.1452 272.861 49.5209 272.861 49.5209C273.055 49.926 273.151 50.371 273.143 50.8204C273.147 51.256 273.05 51.6865 272.861 52.0785C272.861 52.0785 270.365 53.7087 265.461 53.7087C258.378 53.7087 255.741 51.0094 255.741 46.3077L255.747 37.3592ZM278.341 37.3592C278.341 32.6339 280.843 29.9583 287.644 29.9583C294.592 29.9583 296.765 32.6576 296.765 37.3592V42.6752C294.337 42.9481 291.895 43.0723 289.453 43.0473H282.182V46.3077C282.182 49.6154 283.621 51.1511 288.29 51.1511C293.147 51.1511 296.066 49.5268 296.066 49.5268C296.255 49.9333 296.349 50.3777 296.342 50.8263C296.346 51.2612 296.251 51.6914 296.066 52.0844C296.066 52.0844 293.423 53.7146 288.29 53.7146C281.019 53.7146 278.335 51.0153 278.335 46.3136L278.341 37.3592ZM293.106 40.4779V37.3592C293.106 34.0515 291.814 32.5158 287.644 32.5158C283.474 32.5158 282.182 34.0515 282.182 37.3592V40.4779H293.106ZM306.262 32.1969C306.262 32.1969 308.993 29.9642 314.038 29.9642C319.083 29.9642 320.892 32.6635 320.892 37.3651V53.313C320.254 53.4593 319.602 53.5365 318.948 53.5433C318.309 53.5349 317.673 53.4577 317.051 53.313V37.3651C317.051 34.0574 316.029 32.5217 312.787 32.5217C308.088 32.5217 306.268 34.8017 306.268 34.8017V53.3307C305.644 53.4711 305.009 53.5483 304.37 53.561C303.716 53.5542 303.064 53.477 302.426 53.3307V21.0216C303.064 20.8715 303.716 20.7923 304.37 20.7853C305.009 20.7946 305.646 20.8738 306.268 21.0216L306.262 32.1969ZM341.178 51.4701C341.178 51.4701 338.447 53.7028 333.449 53.7028C328.45 53.7028 326.548 50.9976 326.548 46.2959V30.3481C327.186 30.2018 327.837 30.1245 328.492 30.1177C329.13 30.1261 329.766 30.2034 330.389 30.3481V46.2959C330.389 49.6036 331.411 51.1393 334.647 51.1393C339.345 51.1393 341.178 48.8594 341.178 48.8594V30.3245C341.801 30.184 342.436 30.1068 343.075 30.0941C343.729 30.1009 344.381 30.1781 345.019 30.3245V53.3248C344.381 53.4711 343.729 53.5483 343.075 53.5551C342.436 53.5467 341.8 53.4695 341.178 53.3248V51.4701ZM354.51 32.1969C354.51 32.1969 357.241 29.9642 362.333 29.9642C367.425 29.9642 369.275 32.6635 369.275 37.3651V53.313C368.013 53.6202 366.696 53.6202 365.434 53.313V37.3651C365.434 34.0574 364.418 32.5217 361.088 32.5217C356.319 32.5217 354.51 34.8017 354.51 34.8017V53.3307C353.886 53.4706 353.251 53.5478 352.613 53.561C351.958 53.5548 351.307 53.4776 350.669 53.3307V30.3245C351.931 30.0172 353.248 30.0172 354.51 30.3245V32.1969ZM380.246 32.7521V47.0461C380.246 49.8399 381.215 51.1393 384.228 51.1393C385.094 51.118 385.952 50.9626 386.771 50.6786C387.022 51.4318 387.022 52.2467 386.771 52.9999C385.551 53.4339 384.27 53.6711 382.977 53.7028C378.231 53.691 376.469 51.2693 376.469 47.0401V32.7462H374.061C373.902 32.3464 373.822 31.9189 373.826 31.4881C373.818 31.0435 373.898 30.6017 374.061 30.1886H376.646L377.016 25.6701C378.075 25.3642 379.198 25.3642 380.258 25.6701V30.1886H386.777C386.94 30.6017 387.02 31.0435 387.012 31.4881C387.016 31.9189 386.936 32.3464 386.777 32.7462L380.246 32.7521ZM115.613 64.6477H116.788L117.105 65.9235H117.187C117.498 65.4398 117.932 65.0483 118.444 64.7895C118.991 64.518 119.596 64.3823 120.206 64.3937C120.791 64.3481 121.378 64.4371 121.924 64.6541C122.469 64.8711 122.958 65.2103 123.354 65.6459C124.047 66.4847 124.393 67.853 124.393 69.751C124.405 70.57 124.286 71.3856 124.041 72.1668C123.838 72.8329 123.504 73.4514 123.06 73.9861C122.64 74.4779 122.117 74.8694 121.527 75.1319C120.898 75.4081 120.217 75.5451 119.53 75.5336C119.115 75.5434 118.7 75.5117 118.291 75.4391C117.953 75.3646 117.625 75.2537 117.31 75.1083V79.5383H115.619L115.613 64.6477ZM119.883 65.8881C119.262 65.8632 118.654 66.074 118.18 66.4788C117.718 66.9447 117.413 67.5433 117.305 68.1917V73.4663C117.563 73.6683 117.856 73.8223 118.168 73.9211C118.588 74.0396 119.024 74.0934 119.46 74.0806C119.905 74.0981 120.347 74.008 120.749 73.8178C121.152 73.6276 121.503 73.343 121.774 72.9878C122.407 72.0404 122.709 70.9078 122.632 69.7687C122.634 69.2356 122.585 68.7034 122.485 68.1799C122.398 67.7604 122.237 67.3602 122.009 66.9986C121.795 66.6745 121.504 66.4087 121.163 66.2248C120.77 66.0087 120.331 65.8931 119.883 65.8881ZM126.461 69.9637C126.461 68.1621 126.854 66.7859 127.635 65.829C128.061 65.3415 128.592 64.9586 129.187 64.7097C129.783 64.4609 130.428 64.3528 131.071 64.3937C131.779 64.3771 132.481 64.512 133.133 64.7895C133.699 65.0374 134.196 65.4231 134.578 65.9117C134.976 66.4384 135.264 67.0414 135.423 67.6837C135.616 68.4299 135.709 69.1987 135.699 69.9696C135.699 71.7691 135.308 73.1473 134.525 74.1042C134.098 74.5907 133.567 74.9729 132.972 75.2216C132.376 75.4704 131.732 75.5791 131.089 75.5395C130.382 75.5562 129.68 75.4234 129.027 75.1497C128.459 74.8996 127.96 74.5121 127.577 74.0215C127.177 73.4955 126.889 72.8923 126.731 72.2495C126.542 71.5026 126.452 70.7342 126.461 69.9637ZM128.223 69.9637C128.221 70.4856 128.274 71.0064 128.381 71.5171C128.472 71.976 128.641 72.4156 128.881 72.8166C129.103 73.1791 129.407 73.4845 129.767 73.7085C130.172 73.9434 130.634 74.06 131.101 74.0451C133.015 74.0451 133.978 72.6984 133.978 69.9696C133.984 69.4416 133.93 68.9146 133.82 68.3984C133.731 67.9399 133.564 67.5003 133.327 67.099C133.105 66.7384 132.801 66.4366 132.44 66.2189C132.033 65.9894 131.572 65.8751 131.106 65.8881C129.176 65.8763 128.213 67.2348 128.217 69.9637H128.223ZM139.364 66.5378C139.742 65.9309 140.273 65.4356 140.903 65.1025C141.567 64.8031 142.29 64.6597 143.017 64.6832C143.58 64.6496 144.144 64.7473 144.663 64.9685C145.183 65.1898 145.645 65.5288 146.013 65.959C146.706 66.8095 147.058 68.0676 147.058 69.7274C147.058 71.6411 146.647 73.0823 145.842 74.0628C145.426 74.5528 144.904 74.9399 144.315 75.1939C143.726 75.448 143.087 75.5622 142.448 75.5277C141.779 75.572 141.109 75.4478 140.5 75.1662C139.891 74.8847 139.361 74.4547 138.959 73.9152C138.184 72.8343 137.784 71.1391 137.784 68.8355C137.773 67.791 137.834 66.7469 137.966 65.7109C138.056 64.962 138.233 64.2264 138.495 63.5196C138.683 62.9948 138.97 62.5114 139.341 62.0961C139.66 61.7515 140.038 61.4674 140.457 61.2573C140.89 61.0476 141.351 60.9004 141.825 60.8202C142.318 60.7415 142.847 60.6706 143.411 60.6076C143.988 60.5576 144.563 60.4768 145.132 60.3654C145.506 60.2938 145.853 60.1201 146.136 59.8634L146.324 61.3991C146.186 61.5278 146.029 61.6353 145.86 61.718C145.674 61.8136 145.476 61.885 145.273 61.9307C145.038 61.9897 144.744 62.037 144.415 62.0843C144.086 62.1315 143.699 62.161 143.24 62.1906C142.703 62.2214 142.169 62.2945 141.643 62.4091C141.204 62.5098 140.8 62.7235 140.468 63.0293C140.106 63.3892 139.838 63.8335 139.687 64.3229C139.47 65.0469 139.34 65.7945 139.3 66.5496L139.364 66.5378ZM139.552 69.9814C139.548 70.5041 139.606 71.0255 139.722 71.5348C139.82 71.9962 139.995 72.4376 140.239 72.8402C140.458 73.2065 140.768 73.5097 141.138 73.7203C141.531 73.9403 141.975 74.0505 142.424 74.0392C142.845 74.0687 143.266 73.9872 143.646 73.8028C144.026 73.6185 144.352 73.3375 144.591 72.9878C145.127 72.0429 145.374 70.9603 145.302 69.8751C145.307 69.375 145.257 68.8759 145.155 68.3866C145.071 67.9683 144.914 67.5684 144.691 67.2053C144.492 66.885 144.215 66.6208 143.886 66.4374C143.524 66.2497 143.119 66.1582 142.712 66.1716C142.262 66.128 141.808 66.1931 141.388 66.3616C140.968 66.5301 140.594 66.7971 140.298 67.1403C139.746 67.9793 139.484 68.9777 139.552 69.9814Z" fill="#88888C"/>
<path d="M149.119 69.9517C149.119 68.1502 149.513 66.774 150.294 65.8171C150.72 65.3306 151.251 64.9484 151.847 64.6997C152.442 64.4509 153.086 64.3422 153.73 64.3818C154.437 64.3651 155.14 64.5 155.791 64.7775C156.36 65.0255 156.858 65.4111 157.242 65.8998C157.636 66.4293 157.924 67.0313 158.088 67.6718C158.276 68.4188 158.366 69.1872 158.358 69.9576C158.358 71.7296 157.964 73.1354 157.183 74.0923C156.757 74.5788 156.226 74.961 155.63 75.2097C155.035 75.4585 154.391 75.5672 153.747 75.5276C153.041 75.5433 152.339 75.4105 151.686 75.1377C151.117 74.8877 150.619 74.5001 150.235 74.0096C149.84 73.4808 149.552 72.8786 149.39 72.2376C149.201 71.4907 149.11 70.7223 149.119 69.9517ZM150.881 69.9517C150.88 70.4737 150.933 70.9944 151.04 71.5052C151.133 71.9633 151.302 72.4024 151.539 72.8046C151.762 73.1672 152.065 73.4726 152.426 73.6965C152.831 73.9306 153.292 74.0471 153.759 74.0332C155.674 74.0332 156.637 72.6865 156.637 69.9576C156.639 69.4298 156.586 68.9031 156.478 68.3865C156.385 67.9284 156.216 67.4892 155.979 67.087C155.748 66.7082 155.42 66.3987 155.03 66.1909C154.639 65.9831 154.201 65.8846 153.759 65.9057C151.833 65.8644 150.87 67.2229 150.87 69.9576L150.881 69.9517ZM167.426 66.1538H164.137V75.2972H162.446V66.1538H159.163V64.6653H167.444L167.426 66.1538ZM168.93 65.4214C169.508 65.0784 170.139 64.8349 170.797 64.7008C171.531 64.5432 172.279 64.464 173.029 64.4645C173.631 64.4419 174.231 64.5445 174.791 64.7657C175.191 64.9297 175.542 65.1965 175.807 65.5395C176.035 65.8526 176.193 66.2111 176.271 66.5909C176.35 66.9796 176.389 67.3754 176.388 67.7722L176.271 72.5565L176.33 74.045C176.366 74.4825 176.442 74.9155 176.559 75.3386H175.325L174.879 73.8501H174.773C174.64 74.0661 174.48 74.2645 174.298 74.4408C174.096 74.6461 173.864 74.8194 173.61 74.9546C173.316 75.114 173.005 75.2388 172.683 75.3267C172.29 75.4314 171.885 75.4811 171.479 75.4744C171.05 75.4784 170.625 75.4064 170.222 75.2618C169.851 75.1354 169.509 74.9344 169.217 74.6711C168.931 74.4063 168.703 74.0845 168.548 73.7261C168.382 73.3298 168.3 72.9035 168.307 72.4739C168.286 71.9264 168.418 71.384 168.689 70.9086C168.946 70.4848 169.314 70.1396 169.752 69.9104C170.269 69.6431 170.827 69.4635 171.402 69.3788C172.105 69.2677 172.816 69.2144 173.528 69.2193H174.116C174.312 69.2185 174.508 69.2323 174.703 69.2607L174.762 68.1148C174.821 67.5297 174.655 66.944 174.298 66.4787C173.816 66.1072 173.21 65.9379 172.606 66.0061C172.347 66.0066 172.088 66.0264 171.831 66.0652C171.546 66.1002 171.264 66.1515 170.985 66.2188C170.706 66.2799 170.432 66.3588 170.163 66.455C169.924 66.5378 169.694 66.6447 169.476 66.774L168.93 65.4214ZM171.925 73.9505C172.284 73.9559 172.641 73.902 172.982 73.791C173.268 73.6956 173.538 73.5604 173.787 73.3894C173.998 73.236 174.185 73.053 174.345 72.846C174.48 72.6648 174.591 72.4661 174.674 72.2553V70.4833C174.474 70.4833 174.274 70.4833 174.086 70.4479H173.499C173.071 70.4473 172.644 70.471 172.219 70.5188C171.841 70.5599 171.472 70.6533 171.12 70.7964C170.825 70.9161 170.562 71.1067 170.357 71.3516C170.162 71.6023 170.063 71.9141 170.075 72.2317C170.068 72.462 170.112 72.6909 170.204 72.9022C170.295 73.1135 170.432 73.302 170.603 73.4543C170.966 73.7808 171.438 73.9579 171.925 73.9505ZM207.663 66.1538H204.386V75.2972H202.694V66.1538H199.405V64.6653H207.687L207.663 66.1538ZM209.331 64.6594L210.887 64.5531L212.908 64.494C214.3 64.494 215.304 64.7126 215.903 65.1438C216.207 65.3679 216.45 65.6657 216.609 66.0096C216.769 66.3535 216.839 66.7322 216.813 67.1107C216.807 67.6264 216.656 68.1299 216.379 68.5637C216.044 69.0761 215.538 69.4511 214.952 69.621V69.7037C215.624 69.7747 216.249 70.0847 216.714 70.5778C217.07 71.0701 217.249 71.6705 217.219 72.2789C217.255 72.7479 217.166 73.2182 216.959 73.6402C216.752 74.0622 216.436 74.4204 216.044 74.677C214.957 75.2382 213.74 75.4952 212.52 75.4212C211.933 75.4212 211.346 75.4212 210.876 75.3622L209.372 75.2441L209.331 64.6594ZM213.09 69.1248C213.342 69.1259 213.593 69.0819 213.83 68.9949C214.063 68.9158 214.281 68.798 214.476 68.6464C214.661 68.5027 214.818 68.3266 214.94 68.1266C215.057 67.9344 215.12 67.714 215.122 67.4887C215.147 67.264 215.113 67.0368 215.023 66.8295C214.933 66.6222 214.791 66.4422 214.611 66.3074C214.063 66.0436 213.455 65.9295 212.849 65.9766H211.78L211.028 66.0179V69.1071L213.09 69.1248ZM211.017 73.8501C211.287 73.8501 211.545 73.9092 211.81 73.9092H212.732C213.455 73.9575 214.179 73.8192 214.834 73.5075C215.064 73.3634 215.251 73.158 215.372 72.914C215.493 72.6701 215.545 72.3971 215.521 72.1254C215.526 71.886 215.476 71.6488 215.374 71.4325C215.272 71.2162 215.121 71.0267 214.934 70.8791C214.317 70.4993 213.593 70.3314 212.873 70.4006H211.017V73.8501ZM219.298 69.9517C219.298 68.1483 219.689 66.77 220.472 65.8171C220.899 65.3306 221.43 64.9484 222.025 64.6997C222.621 64.4509 223.265 64.3422 223.908 64.3818C224.616 64.3639 225.319 64.4988 225.97 64.7775C226.538 65.0255 227.036 65.4111 227.42 65.8998C227.819 66.4265 228.107 67.0294 228.266 67.6718C228.456 68.4185 228.549 69.1869 228.542 69.9576C228.542 71.7572 228.151 73.1354 227.367 74.0923C226.942 74.5798 226.411 74.9627 225.815 75.2116C225.22 75.4604 224.575 75.5685 223.932 75.5276C223.225 75.5433 222.523 75.4105 221.87 75.1377C221.303 74.8875 220.807 74.4999 220.425 74.0096C220.025 73.4836 219.738 72.8804 219.58 72.2376C219.384 71.4918 219.289 70.723 219.298 69.9517ZM221.06 69.9517C221.058 70.4737 221.111 70.9944 221.218 71.5052C221.31 71.9629 221.476 72.4021 221.712 72.8046C221.936 73.166 222.239 73.4711 222.598 73.6965C223.003 73.9306 223.465 74.0471 223.932 74.0332C225.852 74.0332 226.81 72.6865 226.81 69.9576C226.812 69.4298 226.759 68.9031 226.651 68.3865C226.56 67.9276 226.391 67.488 226.152 67.087C225.921 66.7082 225.593 66.3987 225.202 66.1909C224.812 65.9831 224.373 65.8846 223.932 65.9057C222.013 65.8742 221.054 67.2249 221.054 69.9576L221.06 69.9517ZM238.855 74.5589C238.389 74.891 237.865 75.1333 237.311 75.2736C236.704 75.4374 236.078 75.5189 235.449 75.5158C234.721 75.5321 233.998 75.3995 233.323 75.1259C232.742 74.8739 232.229 74.4873 231.825 73.9978C231.406 73.4765 231.1 72.873 230.927 72.2258C230.719 71.4821 230.618 70.7123 230.627 69.9399C230.617 69.1375 230.74 68.339 230.991 67.5773C231.196 66.9211 231.538 66.3168 231.996 65.8053C232.427 65.336 232.956 64.9688 233.546 64.7303C234.185 64.4761 234.867 64.3497 235.555 64.3582C236.146 64.3521 236.736 64.4055 237.317 64.5177C237.779 64.6099 238.227 64.7628 238.65 64.9725L238.156 66.4609C237.801 66.2595 237.42 66.1084 237.023 66.012C236.589 65.9006 236.143 65.845 235.696 65.8466C235.269 65.8189 234.842 65.8773 234.438 66.0183C234.035 66.1593 233.664 66.3801 233.346 66.6677C232.708 67.3459 232.335 68.2331 232.295 69.1662H237.311V70.566H232.277C232.318 71.0248 232.421 71.4758 232.583 71.9068C232.736 72.3162 232.968 72.6915 233.264 73.0114C233.563 73.3306 233.928 73.5805 234.333 73.7438C234.82 73.9318 235.339 74.0221 235.86 74.0096C236.339 74.0332 236.817 73.9732 237.276 73.8324C237.642 73.7066 237.988 73.5275 238.303 73.3008L238.855 74.5589ZM249.932 68.9476L250.061 66.9276H249.956L249.192 68.5637L246.637 72.7337H246.05L243.384 68.5637L242.679 66.9276H242.597L242.773 68.924V75.2618H241.205V64.6299H242.879L245.815 69.3965L246.402 70.6251H246.443L247.078 69.3493L249.85 64.624H251.541V75.2559H249.897L249.932 68.9476ZM257.955 71.5229L258.542 73.5607H258.648L259.118 71.4934L261.173 64.624H262.865L259.74 74.175L259.036 76.195C258.824 76.7949 258.567 77.3775 258.266 77.9375C258.022 78.3974 257.7 78.8112 257.315 79.1601C256.975 79.4575 256.538 79.6193 256.087 79.6149C255.66 79.6295 255.235 79.5572 254.836 79.4023L255.13 77.9375C255.298 78.0055 255.477 78.0416 255.658 78.0438C255.882 78.0281 256.1 77.964 256.296 77.8559C256.493 77.7479 256.664 77.5984 256.798 77.4177C257.264 76.7778 257.576 76.0377 257.708 75.2559L253.456 64.624H255.406L257.955 71.5229ZM274.341 75.3504C274.098 75.4324 273.845 75.482 273.589 75.498H272.884C272.323 75.5237 271.763 75.4137 271.252 75.1774C270.741 74.941 270.294 74.5852 269.948 74.1395C269.261 73.2299 268.914 71.8359 268.914 69.9281C268.914 68.0203 269.296 66.7385 270.054 65.7935C270.462 65.3246 270.972 64.9562 271.544 64.7165C272.116 64.4769 272.736 64.3725 273.354 64.4113C273.695 64.4064 274.036 64.4361 274.37 64.4999V60.3299H275.974V64.5236L276.649 64.4409C276.843 64.4291 277.037 64.4409 277.236 64.4409C277.818 64.3984 278.402 64.486 278.947 64.6974C279.491 64.9088 279.982 65.2387 280.384 65.6635C281.089 66.4787 281.442 67.8293 281.442 69.7155C281.452 70.53 281.356 71.3423 281.154 72.1313C280.995 72.7861 280.712 73.4038 280.32 73.9505C279.969 74.4331 279.511 74.8257 278.981 75.0964C278.411 75.3755 277.782 75.5132 277.148 75.498H276.59C276.391 75.483 276.193 75.4433 276.003 75.3799V79.5145H274.4L274.341 75.3504ZM273.301 74.11C273.472 74.1188 273.642 74.1188 273.812 74.11C273.996 74.0948 274.179 74.0671 274.359 74.0273V65.9352C274.182 65.9352 274.03 65.888 273.889 65.8762C273.709 65.8659 273.528 65.8659 273.348 65.8762C272.954 65.8597 272.562 65.941 272.207 66.1131C271.851 66.2851 271.544 66.5425 271.31 66.8626C270.754 67.7933 270.5 68.875 270.582 69.9576C270.578 70.5149 270.631 71.0711 270.741 71.6174C270.83 72.085 270.997 72.5342 271.234 72.9464C271.443 73.305 271.738 73.6054 272.092 73.8206C272.465 74.0214 272.884 74.1192 273.307 74.1041L273.301 74.11ZM276.884 65.8407H276.426C276.259 65.8544 276.093 65.8861 275.933 65.9352V74.0155C276.089 74.0468 276.249 74.0646 276.408 74.0686H276.996C277.405 74.0859 277.812 73.9899 278.171 73.791C278.531 73.5921 278.829 73.2979 279.034 72.9405C279.55 71.9375 279.787 70.8132 279.721 69.6859C279.773 68.7015 279.558 67.7213 279.098 66.8508C278.854 66.4986 278.518 66.2201 278.128 66.0452C277.738 65.8704 277.308 65.8058 276.884 65.8585V65.8407ZM283.362 69.9458C283.362 68.1443 283.756 66.7681 284.537 65.8112C284.963 65.3247 285.494 64.9425 286.09 64.6938C286.685 64.445 287.329 64.3363 287.973 64.3759C288.68 64.358 289.383 64.4929 290.034 64.7716C290.602 65.0196 291.101 65.4051 291.485 65.8939C291.884 66.4206 292.171 67.0235 292.33 67.6659C292.52 68.4126 292.613 69.181 292.607 69.9517C292.607 71.7513 292.215 73.1295 291.432 74.0864C291.006 74.5729 290.475 74.9551 289.879 75.2038C289.284 75.4525 288.64 75.5613 287.996 75.5217C287.289 75.5374 286.587 75.4046 285.935 75.1318C285.367 74.8833 284.87 74.4954 284.49 74.0037C284.09 73.4777 283.802 72.8745 283.644 72.2317C283.449 71.4859 283.354 70.717 283.362 69.9458ZM285.124 69.9458C285.122 70.4678 285.176 70.9885 285.283 71.4993C285.374 71.957 285.541 72.3962 285.776 72.7987C286 73.1601 286.304 73.4652 286.663 73.6906C287.068 73.9247 287.529 74.0412 287.996 74.0273C289.917 74.0273 290.874 72.6806 290.874 69.9517C290.876 69.4239 290.823 68.8972 290.715 68.3806C290.622 67.9225 290.453 67.4833 290.216 67.0811C289.985 66.7023 289.657 66.3928 289.267 66.185C288.876 65.9772 288.437 65.8787 287.996 65.8998C286.078 65.8683 285.118 67.2189 285.118 69.9517L285.124 69.9458ZM295.285 64.6299H296.459L296.776 65.9057H296.859C297.172 65.4217 297.608 65.0303 298.121 64.7716C298.669 64.4991 299.273 64.3633 299.883 64.3759C300.469 64.3311 301.057 64.4205 301.603 64.6374C302.15 64.8543 302.64 65.193 303.037 65.6281C303.722 66.4668 304.067 67.8352 304.071 69.7332C304.081 70.5517 303.964 71.3667 303.724 72.149C303.517 72.8146 303.182 73.4328 302.738 73.9682C302.318 74.4601 301.794 74.8515 301.205 75.1141C300.575 75.3903 299.895 75.5273 299.208 75.5158C298.795 75.5259 298.382 75.4942 297.975 75.4212C297.635 75.3469 297.304 75.236 296.988 75.0905V79.5204H295.296L295.285 64.6299ZM299.554 65.8703C298.935 65.8445 298.328 66.0555 297.857 66.4609C297.394 66.9263 297.086 67.5249 296.976 68.1738V73.4484C297.236 73.6517 297.531 73.8058 297.845 73.9033C298.264 74.0222 298.697 74.076 299.132 74.0627C299.576 74.0802 300.018 73.9901 300.421 73.8C300.824 73.6098 301.175 73.3252 301.446 72.97C302.082 72.0237 302.384 70.8902 302.303 69.7509C302.309 69.2176 302.26 68.6851 302.156 68.162C302.07 67.7426 301.909 67.3423 301.681 66.9807C301.469 66.6544 301.178 66.388 300.835 66.2069C300.437 65.9873 299.991 65.8716 299.537 65.8703H299.554ZM315.453 68.9417L315.582 66.9216H315.477L314.713 68.5578L312.158 72.7278H311.571L308.928 68.5578L308.223 66.9216H308.135L308.311 68.9181V75.2559H306.749V64.624H308.417L311.354 69.3906L311.941 70.6192H311.988L312.622 69.3434L315.383 64.6181H317.074V75.25H315.441L315.453 68.9417ZM320.193 65.4096C320.771 65.0666 321.402 64.823 322.06 64.6889C322.794 64.5314 323.542 64.4522 324.292 64.4527C324.894 64.4301 325.494 64.5327 326.054 64.7539C326.454 64.9179 326.805 65.1847 327.07 65.5277C327.298 65.8408 327.456 66.1993 327.534 66.5791C327.613 66.9678 327.652 67.3636 327.652 67.7604L327.534 72.5447L327.593 74.0332C327.629 74.4706 327.705 74.9037 327.822 75.3267H326.548L326.101 73.8383H325.995C325.862 74.0543 325.702 74.2527 325.52 74.4289C325.318 74.6343 325.086 74.8076 324.833 74.9428C324.538 75.1022 324.227 75.227 323.905 75.3149C323.521 75.4169 323.126 75.4666 322.73 75.4626C322.302 75.4666 321.876 75.3946 321.473 75.25C321.102 75.1236 320.76 74.9226 320.469 74.6593C320.183 74.3945 319.955 74.0727 319.799 73.7142C319.634 73.318 319.552 72.8917 319.558 72.462C319.537 71.9146 319.669 71.3721 319.94 70.8968C320.198 70.473 320.565 70.1278 321.003 69.8986C321.521 69.6313 322.078 69.4517 322.654 69.367C323.357 69.2559 324.068 69.2025 324.78 69.2075H325.367C325.564 69.2067 325.76 69.2205 325.954 69.2488L326.013 68.103C326.073 67.5179 325.907 66.9321 325.549 66.4668C325.067 66.0954 324.461 65.9261 323.858 65.9943C323.598 65.9948 323.339 66.0146 323.082 66.0534C322.798 66.0884 322.515 66.1397 322.237 66.2069C321.958 66.2681 321.683 66.347 321.414 66.4432C321.175 66.526 320.945 66.6328 320.727 66.7622L320.193 65.4096ZM323.188 73.9387C323.547 73.9441 323.904 73.8902 324.245 73.7792C324.531 73.6838 324.802 73.5486 325.05 73.3776C325.261 73.2242 325.449 73.0412 325.608 72.8342C325.743 72.6529 325.854 72.4543 325.937 72.2435V70.4715C325.737 70.4715 325.537 70.4715 325.349 70.4361H324.762C324.334 70.4355 323.907 70.4591 323.482 70.507C323.105 70.5481 322.735 70.6415 322.383 70.7846C322.088 70.9043 321.826 71.0949 321.62 71.3398C321.426 71.5905 321.326 71.9022 321.338 72.2199C321.332 72.4502 321.376 72.6791 321.467 72.8904C321.558 73.1017 321.695 73.2902 321.867 73.4425C322.23 73.769 322.701 73.9461 323.188 73.9387ZM337.577 66.142H334.277V75.2854H332.585V66.1538H329.296V64.6653H337.577V66.142ZM339.245 61.4167C339.24 61.1044 339.359 60.8028 339.574 60.578C339.68 60.4624 339.809 60.3709 339.953 60.3098C340.097 60.2486 340.252 60.2192 340.408 60.2236C340.569 60.2194 340.73 60.2487 340.879 60.3097C341.029 60.3707 341.164 60.462 341.277 60.578C341.393 60.6845 341.484 60.8143 341.546 60.9588C341.607 61.1034 341.638 61.2594 341.636 61.4167C341.64 61.5699 341.61 61.7221 341.548 61.8621C341.486 62.0021 341.393 62.1264 341.277 62.2259C341.038 62.4385 340.727 62.5524 340.408 62.5449C340.099 62.553 339.8 62.4384 339.574 62.2259C339.467 62.1213 339.382 61.9953 339.325 61.856C339.269 61.7167 339.241 61.5671 339.245 61.4167ZM339.598 64.6476H341.289V75.2795H339.598V64.6476ZM188.141 71.5288L188.728 73.5666H188.834L189.304 71.4993L191.359 64.6299H193.051L189.92 74.1809L189.215 76.2009C189.007 76.8018 188.749 77.3846 188.446 77.9434C188.202 78.4033 187.88 78.8171 187.495 79.166C187.154 79.4634 186.718 79.6252 186.267 79.6208C185.842 79.6354 185.418 79.5631 185.022 79.4082L185.316 77.9434C185.484 78.0114 185.663 78.0475 185.844 78.0497C186.068 78.034 186.285 77.9699 186.482 77.8618C186.679 77.7538 186.85 77.6043 186.984 77.4236C187.45 76.7837 187.761 76.0436 187.894 75.2618L183.648 64.6299H185.586L188.141 71.5288Z" fill="#88888C"/>
</g>
<defs>
<clipPath id="clip0_172_6350">
<rect width="387" height="96" fill="white"/>
</clipPath>
</defs>
</svg>
