<svg width="119" height="87" viewBox="0 0 119 87" fill="none" xmlns="http://www.w3.org/2000/svg">
<path d="M25.2629 24.1938C25.0478 24.6173 24.7897 24.9243 24.4886 25.1149C24.209 25.2843 23.8541 25.369 23.4239 25.369C23.0152 25.369 22.5742 25.2207 22.101 24.9243C21.6278 24.6279 21.0686 24.3103 20.4233 23.9715C19.7995 23.6115 19.0682 23.2833 18.2293 22.9869C17.3904 22.6905 16.4225 22.5423 15.3255 22.5423C13.3897 22.5423 11.927 23.0081 10.9376 23.9397C9.96966 24.8714 9.4857 26.0889 9.4857 27.5922C9.4857 28.545 9.74381 29.3391 10.26 29.9743C10.7978 30.5883 11.4968 31.1282 12.3572 31.5941C13.2391 32.0387 14.2285 32.441 15.3255 32.801C16.444 33.1609 17.584 33.5526 18.7455 33.9761C19.9071 34.3784 21.0363 34.8654 22.1333 35.4371C23.2518 35.9876 24.2412 36.6864 25.1016 37.5333C25.9835 38.3803 26.6826 39.4178 27.1988 40.6459C27.7365 41.8739 28.0054 43.3667 28.0054 45.1241C28.0054 47.0298 27.6827 48.819 27.0375 50.4917C26.4137 52.1644 25.4888 53.6254 24.2627 54.8747C23.0367 56.1028 21.531 57.0767 19.7457 57.7967C17.982 58.5166 15.9601 58.8765 13.6801 58.8765C12.3895 58.8765 11.0989 58.7389 9.80834 58.4636C8.53928 58.2095 7.31324 57.839 6.13021 57.352C4.94719 56.865 3.82869 56.2827 2.77473 55.6052C1.72076 54.9276 0.795852 54.1653 0 53.3184L2.51661 49.3483C2.7102 49.0307 2.96831 48.7766 3.29096 48.586C3.63511 48.3955 4.00077 48.3002 4.38794 48.3002C4.90417 48.3002 5.43115 48.5014 5.96889 48.9037C6.52814 49.2848 7.17342 49.7188 7.90475 50.2058C8.63607 50.6717 9.4857 51.1057 10.4536 51.508C11.4216 51.8892 12.5723 52.0797 13.9059 52.0797C15.8418 52.0797 17.3474 51.5927 18.4229 50.6187C19.4984 49.6447 20.0361 48.2049 20.0361 46.2993C20.0361 45.2194 19.7672 44.3407 19.2295 43.6631C18.7133 42.9856 18.025 42.4245 17.1646 41.9798C16.3042 41.514 15.3148 41.1223 14.1963 40.8047C13.0993 40.4659 11.97 40.1059 10.8085 39.7248C9.66853 39.3437 8.53928 38.8884 7.42078 38.3591C6.3238 37.8086 5.34512 37.0887 4.48473 36.1994C3.62435 35.3101 2.92529 34.209 2.38756 32.8963C1.87133 31.5835 1.61321 29.9531 1.61321 28.0051C1.61321 26.4594 1.91435 24.9561 2.51661 23.4951C3.11888 22.0129 4.00077 20.7001 5.16228 19.5567C6.3238 18.4134 7.74343 17.5029 9.42117 16.8253C11.1204 16.1266 13.0563 15.7772 15.2287 15.7772C17.6808 15.7772 19.9501 16.1689 22.0365 16.9524C24.1444 17.7358 25.9405 18.8368 27.4246 20.2555L25.2629 24.1938Z" fill="#262626"/>
<path d="M60.7536 58.4319H52.2359V16.2536H60.7536V58.4319Z" fill="#262626"/>
<path d="M94.5666 33.7538H95.9217C97.2123 33.7538 98.1264 33.3303 98.6642 32.4834L107.085 17.9687C107.558 17.3335 108.075 16.8888 108.634 16.6348C109.215 16.3807 109.914 16.2536 110.731 16.2536H118.12L107.085 33.6267C106.289 34.749 105.44 35.543 104.536 36.0088C105.182 36.2417 105.762 36.5805 106.279 37.0251C106.795 37.4698 107.289 38.0309 107.763 38.7085L118.991 58.4319H111.473C110.527 58.4319 109.817 58.2942 109.344 58.019C108.892 57.7225 108.505 57.3414 108.182 56.8756L99.6321 41.5034C99.3094 40.9952 98.9223 40.6247 98.4706 40.3918C98.0404 40.1589 97.4381 40.0424 96.6638 40.0424H94.5666V58.4319H86.0811V16.2536H94.5666V33.7538Z" fill="#262626"/>
<path d="M33.8782 49.2857H43.6978V58.8765H33.8782V49.2857Z" fill="#262626"/>
<path d="M69.249 49.2857H79.0686V58.8765H69.249V49.2857Z" fill="#262626"/>
<path d="M36.353 71.0878C37.2855 69.7293 38.8276 68.9174 40.4754 68.9174H119V74.6934H33.8782L36.353 71.0878Z" fill="#CFAF6C"/>
<path d="M76.7 3.60561C75.7674 4.96418 74.2254 5.77608 72.5776 5.77608H-2.28882e-05V-4.29153e-06H79.1748L76.7 3.60561Z" fill="#CFAF6C"/>
<path d="M37.2211 82.3715C37.1792 82.4486 37.1218 82.4871 37.0491 82.4871C37.0072 82.4871 36.9569 82.4665 36.8981 82.4252C36.8422 82.3811 36.7723 82.3343 36.6884 82.2848C36.6073 82.2325 36.5081 82.1857 36.3906 82.1444C36.276 82.1004 36.1376 82.0784 35.9754 82.0784C35.8216 82.0784 35.686 82.1004 35.5685 82.1444C35.4539 82.1857 35.3574 82.2449 35.2791 82.322C35.2036 82.3963 35.1463 82.4844 35.1071 82.5862C35.068 82.6853 35.0484 82.7927 35.0484 82.9083C35.0484 83.0597 35.0834 83.1849 35.1533 83.284C35.226 83.3831 35.3197 83.4684 35.4343 83.54C35.5517 83.6088 35.6846 83.6694 35.8328 83.7217C35.981 83.774 36.132 83.8276 36.2858 83.8827C36.4396 83.9377 36.5905 84.001 36.7387 84.0726C36.8869 84.1414 37.0184 84.2295 37.133 84.3369C37.2505 84.4415 37.3441 84.5708 37.414 84.725C37.4867 84.8791 37.5231 85.0677 37.5231 85.2906C37.5231 85.5301 37.4839 85.7545 37.4057 85.9636C37.3274 86.1701 37.2127 86.3504 37.0617 86.5045C36.9135 86.6587 36.7304 86.7798 36.5123 86.8679C36.2941 86.956 36.0453 87 35.7657 87C35.4273 87 35.1155 86.9367 34.8303 86.8101C34.5479 86.6807 34.3074 86.5073 34.1089 86.2898L34.3312 85.9347C34.3508 85.9045 34.3745 85.8811 34.4025 85.8646C34.4333 85.8453 34.4682 85.8357 34.5074 85.8357C34.5605 85.8357 34.6192 85.8646 34.6835 85.9224C34.7506 85.9774 34.8331 86.0393 34.931 86.1082C35.0288 86.1742 35.1463 86.2362 35.2833 86.294C35.4231 86.349 35.5895 86.3765 35.7824 86.3765C35.9446 86.3765 36.0886 86.3531 36.2145 86.3063C36.3403 86.2596 36.4465 86.1935 36.5332 86.1082C36.6227 86.0228 36.6898 85.921 36.7346 85.8026C36.7821 85.6815 36.8059 85.548 36.8059 85.4021C36.8059 85.2397 36.7695 85.1062 36.6968 85.0016C36.6269 84.897 36.5332 84.8103 36.4158 84.7415C36.3011 84.6699 36.1697 84.6107 36.0215 84.564C35.8733 84.5144 35.7223 84.4635 35.5685 84.4112C35.4147 84.3589 35.2637 84.2997 35.1155 84.2336C34.9673 84.1648 34.8345 84.0754 34.7171 83.9653C34.6024 83.8552 34.5087 83.7189 34.436 83.5565C34.3661 83.3941 34.3312 83.1918 34.3312 82.9496C34.3312 82.7596 34.3675 82.5752 34.4402 82.3963C34.5129 82.2146 34.6178 82.055 34.7548 81.9173C34.8946 81.7769 35.0652 81.6655 35.2665 81.5829C35.4707 81.4976 35.7041 81.4549 35.967 81.4549C36.2606 81.4549 36.529 81.5031 36.7723 81.5994C37.0184 81.6957 37.2309 81.8361 37.4098 82.0206L37.2211 82.3715Z" fill="#848484"/>
<path d="M41.3316 84.9645C41.3679 85.0278 41.4001 85.0925 41.428 85.1585C41.4588 85.2246 41.4882 85.292 41.5161 85.3608C41.5441 85.2893 41.572 85.2204 41.6 85.1544C41.6308 85.0883 41.6629 85.025 41.6965 84.9645L43.6427 81.6407C43.6762 81.5829 43.7126 81.5485 43.7517 81.5375C43.7909 81.5237 43.844 81.5168 43.9111 81.5168H44.4731V86.9422H43.7978V82.9826C43.7978 82.9275 43.7992 82.867 43.802 82.8009C43.8076 82.7321 43.8132 82.6633 43.8188 82.5945L41.8517 85.9967C41.7874 86.1095 41.6951 86.166 41.5748 86.166H41.4658C41.3455 86.166 41.2533 86.1095 41.189 85.9967L39.1757 82.5986C39.1924 82.7362 39.2008 82.8642 39.2008 82.9826V86.9422H38.5297V81.5168H39.0918C39.1589 81.5168 39.2106 81.5237 39.247 81.5375C39.2861 81.5485 39.3239 81.5843 39.3602 81.6448L41.3316 84.9645Z" fill="#848484"/>
<path d="M50.1187 86.9422H49.5273C49.4602 86.9422 49.4057 86.9257 49.3638 86.8926C49.3246 86.8596 49.2939 86.8183 49.2715 86.7688L48.8017 85.4641H46.5284L46.0628 86.7647C46.046 86.8114 46.0139 86.8527 45.9663 86.8885C45.9216 86.9243 45.8671 86.9422 45.8027 86.9422H45.2113L47.2792 81.5168H48.0551L50.1187 86.9422ZM46.7213 84.9273H48.6088L47.8286 82.7431C47.8007 82.677 47.7727 82.6 47.7447 82.5119C47.7168 82.4238 47.6902 82.3288 47.665 82.227C47.6371 82.3316 47.6091 82.4279 47.5812 82.516C47.5532 82.6041 47.5266 82.6812 47.5015 82.7472L46.7213 84.9273Z" fill="#848484"/>
<path d="M51.5322 84.6878V86.9422H50.7689V81.5168H52.2788C52.6144 81.5168 52.9038 81.5526 53.1471 81.6242C53.3931 81.693 53.5945 81.7935 53.7511 81.9256C53.9104 82.055 54.0279 82.2132 54.1034 82.4004C54.1789 82.5848 54.2166 82.7927 54.2166 83.0239C54.2166 83.2138 54.1873 83.3913 54.1285 83.5565C54.0726 83.7217 53.9901 83.8703 53.8811 84.0024C53.7748 84.1345 53.6434 84.2488 53.4868 84.3451C53.3302 84.4387 53.1527 84.5103 52.9541 84.5598C53.0017 84.5901 53.0464 84.6245 53.0883 84.663C53.1303 84.6988 53.1708 84.7429 53.21 84.7952L54.6906 86.9422H54.0111C53.8797 86.9422 53.7776 86.8913 53.7049 86.7894L52.4005 84.8571C52.3585 84.7965 52.3124 84.7539 52.2621 84.7291C52.2145 84.7016 52.1418 84.6878 52.044 84.6878H51.5322ZM51.5322 84.1387H52.2495C52.4508 84.1387 52.627 84.1139 52.778 84.0644C52.9318 84.0121 53.0604 83.9391 53.1638 83.8455C53.2673 83.7519 53.3442 83.6405 53.3945 83.5111C53.4477 83.379 53.4742 83.2344 53.4742 83.0776C53.4742 82.4307 53.0758 82.1073 52.2788 82.1073H51.5322V84.1387Z" fill="#848484"/>
<path d="M58.8178 81.5168V82.1444H57.2114V86.9422H56.4438V82.1444H54.8332V81.5168H58.8178Z" fill="#848484"/>
<path d="M62.3285 86.9422H61.5651V81.5168H62.3285V86.9422Z" fill="#848484"/>
<path d="M68.0286 84.2295C68.0286 84.6369 67.9671 85.0071 67.8441 85.3402C67.7239 85.6732 67.5533 85.9595 67.3324 86.199C67.1143 86.4357 66.85 86.6188 66.5396 86.7481C66.2321 86.8775 65.8909 86.9422 65.5162 86.9422H63.612V81.5168H65.5162C65.8909 81.5168 66.2321 81.5829 66.5396 81.715C66.85 81.8444 67.1143 82.0274 67.3324 82.2642C67.5533 82.5009 67.7239 82.7872 67.8441 83.123C67.9671 83.456 68.0286 83.8249 68.0286 84.2295ZM67.2443 84.2295C67.2443 83.8992 67.2038 83.6047 67.1227 83.3459C67.0416 83.0844 66.9255 82.8628 66.7745 82.6812C66.6235 82.4995 66.4418 82.3619 66.2293 82.2683C66.0167 82.1719 65.7791 82.1238 65.5162 82.1238H64.3796V86.3352H65.5162C65.7791 86.3352 66.0167 86.2885 66.2293 86.1949C66.4418 86.0985 66.6235 85.9609 66.7745 85.782C66.9255 85.6003 67.0416 85.3787 67.1227 85.1172C67.2038 84.8557 67.2443 84.5598 67.2443 84.2295Z" fill="#848484"/>
<path d="M72.1433 81.5168V82.1279H69.6896V83.9075H71.6651V84.4979H69.6896V86.3311H72.1475L72.1433 86.9422H68.922V81.5168H72.1433Z" fill="#848484"/>
<path d="M77.3569 86.9422H76.7655C76.6984 86.9422 76.6438 86.9257 76.6019 86.8926C76.5628 86.8596 76.532 86.8183 76.5096 86.7688L76.0399 85.4641H73.7665L73.3009 86.7647C73.2842 86.8114 73.252 86.8527 73.2045 86.8885C73.1597 86.9243 73.1052 86.9422 73.0409 86.9422H72.4495L74.5173 81.5168H75.2933L77.3569 86.9422ZM73.9595 84.9273H75.8469L75.0668 82.7431C75.0388 82.677 75.0108 82.6 74.9829 82.5119C74.9549 82.4238 74.9284 82.3288 74.9032 82.227C74.8752 82.3316 74.8473 82.4279 74.8193 82.516C74.7913 82.6041 74.7648 82.6812 74.7396 82.7472L73.9595 84.9273Z" fill="#848484"/>
<path d="M80.7333 82.3715C80.6914 82.4486 80.6341 82.4871 80.5614 82.4871C80.5194 82.4871 80.4691 82.4665 80.4104 82.4252C80.3545 82.3811 80.2845 82.3343 80.2007 82.2848C80.1196 82.2325 80.0203 82.1857 79.9029 82.1444C79.7882 82.1004 79.6498 82.0784 79.4876 82.0784C79.3338 82.0784 79.1982 82.1004 79.0808 82.1444C78.9661 82.1857 78.8697 82.2449 78.7914 82.322C78.7159 82.3963 78.6585 82.4844 78.6194 82.5862C78.5802 82.6853 78.5607 82.7927 78.5607 82.9083C78.5607 83.0597 78.5956 83.1849 78.6655 83.284C78.7382 83.3831 78.8319 83.4684 78.9465 83.54C79.064 83.6088 79.1968 83.6694 79.345 83.7217C79.4932 83.774 79.6442 83.8276 79.798 83.8827C79.9518 83.9377 80.1028 84.001 80.251 84.0726C80.3992 84.1414 80.5306 84.2295 80.6453 84.3369C80.7627 84.4415 80.8564 84.5708 80.9263 84.725C80.999 84.8791 81.0353 85.0677 81.0353 85.2906C81.0353 85.5301 80.9962 85.7545 80.9179 85.9636C80.8396 86.1701 80.725 86.3504 80.574 86.5045C80.4258 86.6587 80.2426 86.7798 80.0245 86.8679C79.8064 86.956 79.5575 87 79.2779 87C78.9396 87 78.6278 86.9367 78.3426 86.8101C78.0601 86.6807 77.8197 86.5073 77.6211 86.2898L77.8434 85.9347C77.863 85.9045 77.8868 85.8811 77.9147 85.8646C77.9455 85.8453 77.9804 85.8357 78.0196 85.8357C78.0727 85.8357 78.1314 85.8646 78.1958 85.9224C78.2629 85.9774 78.3454 86.0393 78.4432 86.1082C78.5411 86.1742 78.6585 86.2362 78.7956 86.294C78.9354 86.349 79.1017 86.3765 79.2947 86.3765C79.4569 86.3765 79.6009 86.3531 79.7267 86.3063C79.8525 86.2596 79.9588 86.1935 80.0455 86.1082C80.1349 86.0228 80.2021 85.921 80.2468 85.8026C80.2943 85.6815 80.3181 85.548 80.3181 85.4021C80.3181 85.2397 80.2817 85.1062 80.209 85.0016C80.1391 84.897 80.0455 84.8103 79.928 84.7415C79.8134 84.6699 79.682 84.6107 79.5338 84.564C79.3856 84.5144 79.2346 84.4635 79.0808 84.4112C78.927 84.3589 78.776 84.2997 78.6278 84.2336C78.4796 84.1648 78.3468 84.0754 78.2293 83.9653C78.1147 83.8552 78.021 83.7189 77.9483 83.5565C77.8784 83.3941 77.8434 83.1918 77.8434 82.9496C77.8434 82.7596 77.8798 82.5752 77.9525 82.3963C78.0252 82.2146 78.13 82.055 78.2671 81.9173C78.4069 81.7769 78.5774 81.6655 78.7788 81.5829C78.9829 81.4976 79.2164 81.4549 79.4792 81.4549C79.7728 81.4549 80.0413 81.5031 80.2845 81.5994C80.5306 81.6957 80.7431 81.8361 80.9221 82.0206L80.7333 82.3715Z" fill="#848484"/>
<path d="M84.5712 83.8868H84.7893C84.8704 83.8868 84.9375 83.8744 84.9906 83.8497C85.0437 83.8249 85.0899 83.785 85.129 83.7299L86.5509 81.6902C86.6012 81.6269 86.653 81.5829 86.7061 81.5581C86.762 81.5306 86.8305 81.5168 86.9116 81.5168H87.5659L85.8882 83.8455C85.7987 83.9639 85.7051 84.0478 85.6072 84.0974C85.7358 84.1414 85.8519 84.2309 85.9553 84.3658L87.6876 86.9422H87.0165C86.9242 86.9422 86.8557 86.9284 86.811 86.9009C86.769 86.8706 86.7285 86.8321 86.6893 86.7853L85.2297 84.6383C85.185 84.575 85.136 84.5309 85.0829 84.5061C85.0326 84.4786 84.9557 84.4649 84.8522 84.4649H84.5712V86.9422H83.8078V81.5168H84.5712V83.8868Z" fill="#848484"/>
<path d="M89.2143 86.9422H88.451V81.5168H89.2143V86.9422Z" fill="#848484"/>
<path d="M90.934 81.5168C90.9983 81.5168 91.0473 81.5251 91.0808 81.5416C91.1144 81.5554 91.1521 81.5898 91.1941 81.6448L94.1888 85.7035C94.1832 85.6375 94.1777 85.5728 94.1721 85.5095C94.1693 85.4434 94.1679 85.3828 94.1679 85.3278V81.5168H94.839V86.9422H94.4531C94.3944 86.9422 94.344 86.9326 94.3021 86.9133C94.2629 86.894 94.2238 86.8596 94.1846 86.8101L91.1899 82.7638C91.1955 82.8271 91.1997 82.8876 91.2025 82.9454C91.2052 83.0032 91.2066 83.0583 91.2066 83.1106V86.9422H90.5356V81.5168H90.934Z" fill="#848484"/>
<path d="M100.43 86.4178C100.162 86.6133 99.875 86.7591 99.5702 86.8555C99.2682 86.9518 98.9396 87 98.5845 87C98.1567 87 97.7694 86.9326 97.4227 86.7977C97.0787 86.6628 96.7851 86.4743 96.5419 86.232C96.2986 85.987 96.1112 85.6953 95.9798 85.3567C95.8484 85.0154 95.7827 84.6396 95.7827 84.2295C95.7827 83.8166 95.8456 83.4409 95.9714 83.1023C96.1001 82.761 96.2818 82.4692 96.5167 82.227C96.7544 81.982 97.041 81.7921 97.3765 81.6572C97.7121 81.5223 98.0882 81.4549 98.5048 81.4549C98.7173 81.4549 98.9131 81.4714 99.092 81.5044C99.2738 81.5347 99.4416 81.5801 99.5954 81.6407C99.7492 81.6985 99.8904 81.7701 100.019 81.8554C100.15 81.9407 100.272 82.0357 100.384 82.1403L100.17 82.4789C100.136 82.5339 100.092 82.5683 100.036 82.5821C99.9798 82.5958 99.9197 82.5835 99.8554 82.5449C99.7911 82.5091 99.7198 82.4665 99.6415 82.4169C99.566 82.3646 99.4751 82.3165 99.3689 82.2724C99.2626 82.2256 99.1368 82.1857 98.9914 82.1527C98.846 82.1196 98.674 82.1031 98.4755 82.1031C98.1847 82.1031 97.9204 82.1527 97.6827 82.2518C97.4478 82.3509 97.2465 82.4926 97.0787 82.677C96.9138 82.8615 96.7865 83.0858 96.6971 83.3501C96.6076 83.6116 96.5628 83.9047 96.5628 84.2295C96.5628 84.5681 96.609 84.8722 96.7013 85.142C96.7963 85.409 96.9305 85.6361 97.1039 85.8233C97.2801 86.0077 97.4912 86.1494 97.7373 86.2485C97.9833 86.3449 98.2588 86.3931 98.5635 86.3931C98.7984 86.3931 99.0081 86.3669 99.1927 86.3146C99.3773 86.2596 99.559 86.1839 99.738 86.0875V84.8984H98.9452C98.8949 84.8984 98.8544 84.8846 98.8236 84.8571C98.7928 84.8296 98.7775 84.7952 98.7775 84.7539V84.3286H100.43V86.4178Z" fill="#848484"/>
<path d="M105.879 84.2295C105.879 84.6369 105.817 85.0071 105.694 85.3402C105.574 85.6732 105.403 85.9595 105.182 86.199C104.964 86.4357 104.7 86.6188 104.39 86.7481C104.082 86.8775 103.741 86.9422 103.366 86.9422H101.462V81.5168H103.366C103.741 81.5168 104.082 81.5829 104.39 81.715C104.7 81.8444 104.964 82.0274 105.182 82.2642C105.403 82.5009 105.574 82.7872 105.694 83.123C105.817 83.456 105.879 83.8249 105.879 84.2295ZM105.094 84.2295C105.094 83.8992 105.054 83.6047 104.973 83.3459C104.891 83.0844 104.775 82.8628 104.624 82.6812C104.473 82.4995 104.292 82.3619 104.079 82.2683C103.867 82.1719 103.629 82.1238 103.366 82.1238H102.229V86.3352H103.366C103.629 86.3352 103.867 86.2885 104.079 86.1949C104.292 86.0985 104.473 85.9609 104.624 85.782C104.775 85.6003 104.891 85.3787 104.973 85.1172C105.054 84.8557 105.094 84.5598 105.094 84.2295Z" fill="#848484"/>
<path d="M111.549 84.2295C111.549 84.6369 111.488 85.0099 111.365 85.3484C111.244 85.687 111.073 85.9788 110.849 86.2238C110.628 86.4687 110.361 86.6601 110.048 86.7977C109.737 86.9326 109.392 87 109.012 87C108.634 87 108.289 86.9326 107.976 86.7977C107.663 86.6601 107.394 86.4687 107.17 86.2238C106.947 85.9788 106.773 85.687 106.65 85.3484C106.527 85.0099 106.466 84.6369 106.466 84.2295C106.466 83.8249 106.527 83.4533 106.65 83.1147C106.773 82.7734 106.947 82.4802 107.17 82.2353C107.394 81.9875 107.663 81.7962 107.976 81.6613C108.289 81.5237 108.634 81.4549 109.012 81.4549C109.392 81.4549 109.737 81.5237 110.048 81.6613C110.361 81.7962 110.628 81.9875 110.849 82.2353C111.073 82.4802 111.244 82.7734 111.365 83.1147C111.488 83.4533 111.549 83.8249 111.549 84.2295ZM110.769 84.2295C110.769 83.8992 110.727 83.6033 110.643 83.3418C110.562 83.0776 110.445 82.8546 110.291 82.6729C110.14 82.4885 109.955 82.3481 109.737 82.2518C109.522 82.1527 109.28 82.1031 109.012 82.1031C108.743 82.1031 108.5 82.1527 108.282 82.2518C108.067 82.3481 107.882 82.4885 107.728 82.6729C107.574 82.8546 107.456 83.0776 107.372 83.3418C107.291 83.6033 107.25 83.8992 107.25 84.2295C107.25 84.5598 107.291 84.8571 107.372 85.1214C107.456 85.3828 107.574 85.6058 107.728 85.7902C107.882 85.9719 108.067 86.1109 108.282 86.2073C108.5 86.3036 108.743 86.3518 109.012 86.3518C109.28 86.3518 109.522 86.3036 109.737 86.2073C109.955 86.1109 110.14 85.9719 110.291 85.7902C110.445 85.6058 110.562 85.3828 110.643 85.1214C110.727 84.8571 110.769 84.5598 110.769 84.2295Z" fill="#848484"/>
<path d="M115.354 84.9645C115.39 85.0278 115.422 85.0925 115.45 85.1585C115.481 85.2246 115.51 85.292 115.538 85.3608C115.566 85.2893 115.594 85.2204 115.622 85.1544C115.653 85.0883 115.685 85.025 115.718 84.9645L117.665 81.6407C117.698 81.5829 117.735 81.5485 117.774 81.5375C117.813 81.5237 117.866 81.5168 117.933 81.5168H118.495V86.9422H117.82V82.9826C117.82 82.9275 117.821 82.867 117.824 82.8009C117.83 82.7321 117.835 82.6633 117.841 82.5945L115.874 85.9967C115.809 86.1095 115.717 86.166 115.597 86.166H115.488C115.368 86.166 115.275 86.1095 115.211 85.9967L113.198 82.5986C113.214 82.7362 113.223 82.8642 113.223 82.9826V86.9422H112.552V81.5168H113.114C113.181 81.5168 113.233 81.5237 113.269 81.5375C113.308 81.5485 113.346 81.5843 113.382 81.6448L115.354 84.9645Z" fill="#848484"/>
</svg>
